<svg width="18" height="15" viewBox="0 0 18 15" fill="none" xmlns="http://www.w3.org/2000/svg">
  <path
    d="M3.46153 14.4231C3.46153 14.5372 3.4277 14.6487 3.3643 14.7436C3.30091 14.8385 3.21081 14.9124 3.10539 14.9561C2.99997 14.9997 2.88397 15.0112 2.77206 14.9889C2.66015 14.9667 2.55735 14.9117 2.47666 14.831C2.39598 14.7503 2.34103 14.6475 2.31877 14.5356C2.29651 14.4237 2.30794 14.3077 2.3516 14.2023C2.39527 14.0969 2.46921 14.0068 2.56409 13.9434C2.65896 13.88 2.77051 13.8462 2.88461 13.8462C3.03762 13.8462 3.18436 13.9069 3.29255 14.0151C3.40075 14.1233 3.46153 14.2701 3.46153 14.4231ZM5.1923 11.5385C5.07819 11.5385 4.96665 11.5723 4.87178 11.6357C4.7769 11.6991 4.70296 11.7892 4.65929 11.8946C4.61562 12 4.6042 12.116 4.62646 12.2279C4.64872 12.3399 4.70367 12.4427 4.78435 12.5233C4.86504 12.604 4.96783 12.659 5.07975 12.6812C5.19166 12.7035 5.30766 12.6921 5.41308 12.6484C5.51849 12.6047 5.6086 12.5308 5.67199 12.4359C5.73538 12.341 5.76922 12.2295 5.76922 12.1154C5.76922 11.9624 5.70844 11.8156 5.60024 11.7074C5.49205 11.5992 5.34531 11.5385 5.1923 11.5385ZM0.576922 11.5385C0.462818 11.5385 0.351276 11.5723 0.256401 11.6357C0.161527 11.6991 0.0875817 11.7892 0.0439158 11.8946C0.000249969 12 -0.011175 12.116 0.0110857 12.2279C0.0333463 12.3399 0.0882927 12.4427 0.168977 12.5233C0.249661 12.604 0.352458 12.659 0.46437 12.6812C0.576282 12.7035 0.692282 12.6921 0.797701 12.6484C0.903119 12.6047 0.993222 12.5308 1.05662 12.4359C1.12001 12.341 1.15384 12.2295 1.15384 12.1154C1.15384 11.9624 1.09306 11.8156 0.984868 11.7074C0.876674 11.5992 0.729931 11.5385 0.576922 11.5385ZM2.88461 9.23078C2.77051 9.23078 2.65896 9.26462 2.56409 9.32801C2.46921 9.3914 2.39527 9.4815 2.3516 9.58692C2.30794 9.69234 2.29651 9.80834 2.31877 9.92025C2.34103 10.0322 2.39598 10.135 2.47666 10.2156C2.55735 10.2963 2.66015 10.3513 2.77206 10.3735C2.88397 10.3958 2.99997 10.3844 3.10539 10.3407C3.21081 10.297 3.30091 10.2231 3.3643 10.1282C3.4277 10.0333 3.46153 9.92181 3.46153 9.8077C3.46153 9.65469 3.40075 9.50795 3.29255 9.39976C3.18436 9.29156 3.03762 9.23078 2.88461 9.23078ZM17.3077 0.28849C17.3077 0.364995 17.2773 0.438366 17.2232 0.492463C17.1691 0.54656 17.0957 0.576951 17.0192 0.576951H14.9502C14.8739 0.577082 14.8008 0.607419 14.7468 0.661326L13.7981 1.61011C13.066 2.34219 12.5792 3.28346 12.4049 4.304L11.0956 11.9712C11.0694 12.1278 11.0005 12.2741 10.8966 12.3942C10.7926 12.5143 10.6577 12.6034 10.5065 12.6519C10.4204 12.6791 10.3306 12.6927 10.2404 12.6923C10.0114 12.6917 9.79205 12.6004 9.63027 12.4385L2.56298 5.37117C2.45023 5.25903 2.37056 5.118 2.33272 4.96355C2.29487 4.8091 2.30032 4.64721 2.34845 4.49565C2.39659 4.34409 2.48555 4.20872 2.60558 4.10441C2.7256 4.0001 2.87205 3.93088 3.02884 3.90435L10.6912 2.59516C11.7116 2.42082 12.6527 1.93408 13.3847 1.20211L14.3336 0.253153C14.4144 0.172071 14.5105 0.10792 14.6164 0.0644556C14.7223 0.0209915 14.8358 -0.000911659 14.9502 2.9066e-05H17.0192C17.0957 2.9066e-05 17.1691 0.0304205 17.2232 0.0845174C17.2773 0.138614 17.3077 0.211985 17.3077 0.28849ZM10.8616 9.90733C11.4426 6.50899 8.49081 3.55622 5.09226 4.13601L3.12764 4.47117C3.07516 4.47963 3.02603 4.50241 2.98569 4.53702C2.94534 4.57163 2.91534 4.61672 2.899 4.6673C2.88267 4.71788 2.88062 4.772 2.8931 4.82367C2.90557 4.87534 2.93209 4.92256 2.96971 4.96012L10.037 12.0274C10.0745 12.065 10.1216 12.0915 10.1731 12.1041C10.2247 12.1166 10.2787 12.1147 10.3293 12.0985C10.3798 12.0824 10.4249 12.0526 10.4596 12.0124C10.4943 11.9722 10.5173 11.9233 10.5259 11.8709L10.8616 9.90733Z"
    fill="#7c6a46" />
</svg>