<svg width="18" height="16" viewBox="0 0 18 16" fill="none" xmlns="http://www.w3.org/2000/svg">
  <path
    d="M11.8516 9.99513C11.0377 9.31543 10.0116 8.94177 8.95122 8.93885C7.89613 8.93595 6.87309 9.30024 6.05742 9.96897C6.04959 9.97539 6.04506 9.985 6.04506 9.99513M14.6233 6.84443C13.0225 5.52385 11.012 4.80158 8.93688 4.80158C6.86171 4.80158 4.85124 5.52385 3.25049 6.84443M17.3556 3.53727C14.9858 1.57422 12.0051 0.5 8.9278 0.5C5.85054 0.5 2.8698 1.57422 0.5 3.53727M8.93688 11.8557C8.57649 11.8557 8.2242 11.9626 7.92456 12.1628C7.62491 12.363 7.39136 12.6476 7.25345 12.9806C7.11553 13.3135 7.07945 13.6799 7.14976 14.0333C7.22006 14.3868 7.3936 14.7115 7.64843 14.9663C7.90326 15.2211 8.22794 15.3947 8.5814 15.465C8.93486 15.5353 9.30123 15.4992 9.63418 15.3613C9.96713 15.2234 10.2517 14.9898 10.4519 14.6902C10.6521 14.3905 10.759 14.0382 10.759 13.6779C10.759 13.4386 10.7119 13.2016 10.6203 12.9806C10.5287 12.7595 10.3945 12.5586 10.2253 12.3894C10.0561 12.2202 9.85525 12.086 9.63418 11.9944C9.41311 11.9029 9.17616 11.8557 8.93688 11.8557Z"
    stroke="#7c6a46" stroke-linecap="round" stroke-linejoin="round" />
</svg>